<?xml version="1.0" encoding="UTF-8" standalone="no"?>
<!-- Created with Inkscape (http://www.inkscape.org/) -->

<svg
   width="1024"
   height="500"
   viewBox="0 0 270.93333 132.29167"
   version="1.1"
   id="svg5"
   xml:space="preserve"
   inkscape:export-filename="bitmap.jpg"
   inkscape:export-xdpi="96"
   inkscape:export-ydpi="96"
   inkscape:version="1.2.2 (b0a8486541, 2022-12-01)"
   sodipodi:docname="Boltbutton.svg"
   xmlns:inkscape="http://www.inkscape.org/namespaces/inkscape"
   xmlns:sodipodi="http://sodipodi.sourceforge.net/DTD/sodipodi-0.dtd"
   xmlns="http://www.w3.org/2000/svg"
   xmlns:svg="http://www.w3.org/2000/svg"><sodipodi:namedview
     id="namedview7"
     pagecolor="#ffffff"
     bordercolor="#666666"
     borderopacity="1.0"
     inkscape:showpageshadow="2"
     inkscape:pageopacity="0.0"
     inkscape:pagecheckerboard="0"
     inkscape:deskcolor="#d1d1d1"
     inkscape:document-units="mm"
     showgrid="false"
     showguides="true"
     inkscape:zoom="0.81437865"
     inkscape:cx="639.75154"
     inkscape:cy="277.51219"
     inkscape:window-width="2158"
     inkscape:window-height="1159"
     inkscape:window-x="740"
     inkscape:window-y="584"
     inkscape:window-maximized="0"
     inkscape:current-layer="layer3" /><defs
     id="defs2" /><g
     inkscape:label="Layer 1"
     inkscape:groupmode="layer"
     id="layer1"
     style="display:inline" /><g
     inkscape:groupmode="layer"
     id="layer3"
     inkscape:label="can lid"
     style="display:inline"><path
       id="rect4655"
       style="fill:#000080;stroke:#000000;stroke-width:1.05833333;stroke-dasharray:none;stroke-opacity:1"
       d="m 51.228707,86.227512 v 22.331158 h 0.0036 a 37.198144,9.8650926 0 0 0 -0.0067,0.0554 37.198144,9.8650926 0 0 0 37.198115,9.86531 37.198144,9.8650926 0 0 0 37.198108,-9.86531 37.198144,9.8650926 0 0 0 -0.002,-0.0554 h 0.004 V 86.227512 Z" /><ellipse
       style="fill:#000080;stroke:#000000;stroke-width:1.05833333;stroke-dasharray:none;stroke-opacity:1"
       id="path231-35"
       cx="88.346397"
       cy="87.865097"
       rx="38.145981"
       ry="8.4315405" /><path
       id="rect4655-1"
       style="display:inline;fill:#4545a2;fill-opacity:1;stroke:#000000;stroke-width:1.05833;stroke-dasharray:none;stroke-opacity:1"
       d="M 97.984411,86.233168 V 118.1531 a 37.198144,9.8650926 0 0 0 27.637049,-9.53327 37.198144,9.8650926 0 0 0 -0.002,-0.0553 h 0.004 V 86.233168 Z" /><path
       id="path231-35-0"
       style="display:inline;fill:#4545a2;fill-opacity:1;stroke:#000000;stroke-width:1.05833;stroke-dasharray:none;stroke-opacity:1"
       d="M 94.164795 79.485071 L 94.164795 96.148653 A 38.145981 8.4315405 0 0 0 126.52044 87.818929 A 38.145981 8.4315405 0 0 0 94.164795 79.485071 z " /><ellipse
       style="display:inline;fill:#000080;stroke:#000000;stroke-width:1.05833333;stroke-dasharray:none;stroke-opacity:1"
       id="ellipse721"
       cx="88.436813"
       cy="83.49086"
       rx="44.735291"
       ry="9.8454571" /><path
       style="display:inline;fill:#4545a2;fill-opacity:0.999333;stroke:#000000;stroke-width:1.05833;stroke-dasharray:none;stroke-opacity:1"
       d="m 108.33156,74.681419 -20.793019,8.305436 2.2319,10.345621 a 44.735291,9.8454571 0 0 0 43.400949,-9.836092 44.735291,9.8454571 0 0 0 -24.83983,-8.814965 z"
       id="ellipse721-7" /><rect
       style="fill:#ffe373;fill-opacity:1;stroke:none;stroke-width:1.05833;stroke-dasharray:none;stroke-opacity:1"
       id="rect11323"
       width="0.43793306"
       height="0.66508311"
       x="185.5648"
       y="95.417198" /></g><g
     inkscape:groupmode="layer"
     id="layer2"
     inkscape:label="bolt"><path
       style="fill:#ffcc00;stroke:#000000;stroke-width:1.00013;stroke-dasharray:none;stroke-opacity:1"
       d="M 88.315778,81.371268 C 88.288641,79.29014 76.25051,39.203166 76.25051,39.203166 l 35.3165,-2.938417 27.31534,-17.668671 c 0,0 28.62823,14.353317 30.82218,13.010616 2.19396,-1.342702 56.32715,-32.30180132 56.32715,-32.30180132 L 273.30892,-1.1311886 174.971,41.97706 139.99128,28.805043 115.20891,46.535317 91.937303,47.237852 Z"
       id="path474"
       sodipodi:nodetypes="ccccsccccccc" /><path
       style="fill:#ffe373;fill-opacity:1;stroke:none;stroke-width:1.00013;stroke-dasharray:none;stroke-opacity:1"
       d="M 88.156143,78.155937 C 88.2582,76.2074 87.841109,44.008453 87.841109,44.008453 l 25.754851,-1.739965 25.46415,-18.248959 c 0,0 33.90025,14.822072 36.0942,13.479371 2.19396,-1.342702 82.1229,-39.4526909 82.1229,-39.4526909 l 16.64289,-0.043307 -98.92054,43.4922269 -35.04138,-13.390247 -24.84437,17.91083 -23.625866,0.673494 z"
       id="path474-9" /></g></svg>
